<?xml version="1.0" encoding="UTF-8" standalone="no"?>
<svg
   xmlns:dc="http://purl.org/dc/elements/1.1/"
   xmlns:cc="http://creativecommons.org/ns#"
   xmlns:rdf="http://www.w3.org/1999/02/22-rdf-syntax-ns#"
   xmlns:svg="http://www.w3.org/2000/svg"
   xmlns="http://www.w3.org/2000/svg"
   viewBox="0 0 279.06534 98.557068"
   height="98.557068"
   width="279.06534"
   xml:space="preserve"
   id="svg2"
   version="1.1"><metadata
     id="metadata8"><rdf:RDF><cc:Work
         rdf:about=""><dc:format>image/svg+xml</dc:format><dc:type
           rdf:resource="http://purl.org/dc/dcmitype/StillImage" /></cc:Work></rdf:RDF></metadata><defs
     id="defs6"><clipPath
       id="clipPath18"
       clipPathUnits="userSpaceOnUse"><path
         id="path16"
         d="M 0,73.918 H 209.299 V 0 H 0 Z" /></clipPath></defs><g
     transform="matrix(1.3333333,0,0,-1.3333333,0,98.557067)"
     id="g10"><g
       id="g12"><g
         clip-path="url(#clipPath18)"
         id="g14"><g
           transform="translate(20.9261,15.9243)"
           id="g20"><path
             id="path22"
             style="fill:#ffffff;fill-opacity:1;fill-rule:nonzero;stroke:none"
             d="m 0,0 c 3.013,-0.013 4.828,1.527 4.847,5.832 l 0.139,31.337 c 0.019,4.304 -1.782,5.863 -4.795,5.877 L -4.63,43.067 -4.821,0.021 Z M -14.33,51.13 0.348,51.119 C 9.818,51.077 14.497,45.75 14.454,36.109 L 14.319,6.222 C 14.276,-3.422 9.603,-9.164 0.133,-9.122 H -14.33 Z" /></g><g
           transform="translate(41.4253,22.0828)"
           id="g24"><path
             id="path26"
             style="fill:#ffffff;fill-opacity:1;fill-rule:nonzero;stroke:none"
             d="M 0,0 V 44.972 H 9.522 L 9.315,-1.297 c -0.02,-4.305 1.781,-5.298 4.794,-5.311 3.013,-0.013 4.828,0.963 4.847,5.268 l 0.208,46.312 h 9.033 L 28.085,-0.126 C 28.042,-9.769 23.197,-15.322 13.898,-15.281 4.601,-15.24 -0.043,-9.644 0,0" /></g><g
           transform="translate(90.26,40.1525)"
           id="g28"><path
             id="path30"
             style="fill:#ffffff;fill-opacity:1;fill-rule:nonzero;stroke:none"
             d="m 0,0 c 3.013,-0.013 4.655,1.357 4.674,5.662 l 0.032,7.454 c 0.019,4.304 -1.611,5.69 -4.624,5.703 l -4.558,0.02 V 0.02 Z M -14.095,26.902 0.121,26.84 C 9.591,26.798 14.215,21.524 14.172,11.883 L 14.146,6.222 C 14.103,-3.421 9.432,-8.651 -0.038,-8.609 l -4.438,0.02 V -33.35 h -9.619 z" /></g><g
           transform="translate(123.5825,26.8312)"
           id="g32"><path
             id="path34"
             style="fill:#ffffff;fill-opacity:1;fill-rule:nonzero;stroke:none"
             d="M 0,0 -4.086,29.807 -4.256,29.808 -8.541,0 Z M -10.152,40.223 H 2.676 l 9.547,-60.252 H 2.776 L 1.082,-8.165 h -10.76 l -1.774,-11.864 h -8.781 z" /></g><g
           transform="translate(152.0111,41.1697)"
           id="g36"><path
             id="path38"
             style="fill:#ffffff;fill-opacity:1;fill-rule:nonzero;stroke:none"
             d="m 0,0 c 3.529,-0.016 5.69,1.523 5.711,6.344 l 0.021,4.65 c 0.019,4.305 -1.437,6.206 -4.794,6.22 l -4.381,0.02 V 0.015 Z M -12.841,25.885 1.234,25.822 C 11.048,25.779 15.246,21.196 15.205,11.898 L 15.188,8.196 C 15.161,1.997 13.165,-1.953 8.939,-3.655 L 8.938,-3.828 c 4.728,-1.486 6.257,-5.968 6.227,-12.769 l 0.04,-17.771 H 5.616 l 0.082,18.329 c 0.025,5.596 -1.604,7.411 -5.909,7.431 l -3.232,0.014 v -25.774 h -9.398 z" /></g><g
           transform="translate(173.8088,67.0545)"
           id="g40"><path
             id="path42"
             style="fill:#ffffff;fill-opacity:1;fill-rule:nonzero;stroke:none"
             d="M 0,0 H 9.616 V -25.594 L 21.741,0 h 9.471 l -11.377,-22.368 11.28,-37.82 h -9.901 l -7.885,26.57 -3.713,-7.644 V -60.253 H 0 Z" /></g></g></g></g></svg>